<svg xmlns="http://www.w3.org/2000/svg" width="1200" height="630" viewBox="0 0 1200 630" role="img" aria-label="EcoHack IEMA banner">
  <defs>
    <linearGradient id="bg" x1="0" y1="0" x2="1" y2="1">
      <stop offset="0%" stop-color="#0b2a1c"/>
      <stop offset="55%" stop-color="#12472e"/>
      <stop offset="100%" stop-color="#4b3419"/>
    </linearGradient>
    <radialGradient id="flare" cx="0.82" cy="0.2" r="0.6">
      <stop offset="0%" stop-color="#f48b3c" stop-opacity="0.8"/>
      <stop offset="100%" stop-color="#f48b3c" stop-opacity="0"/>
    </radialGradient>
  </defs>

  <rect width="1200" height="630" fill="url(#bg)"/>
  <rect width="1200" height="630" fill="url(#flare)"/>

  <g opacity="0.18" stroke="#b0eec5" stroke-width="1">
    <path d="M0 96H1200M0 192H1200M0 288H1200M0 384H1200M0 480H1200M0 576H1200"/>
    <path d="M120 0V630M240 0V630M360 0V630M480 0V630M600 0V630M720 0V630M840 0V630M960 0V630M1080 0V630"/>
  </g>

  <text x="72" y="120" fill="#c6f5d9" font-family="Arial, sans-serif" font-size="30" font-weight="700">EcoHack IEMA</text>
  <text x="72" y="208" fill="#ffffff" font-family="Georgia, serif" font-size="64" font-weight="700">Monitoramento de Queimadas</text>
  <text x="72" y="276" fill="#ffffff" font-family="Georgia, serif" font-size="58" font-weight="700">Chapada das Mesas e Carolina-MA</text>

  <text x="72" y="344" fill="#d2e9dc" font-family="Arial, sans-serif" font-size="30">
    Dados de satelite, classificacao de risco e estimativa de CO2.
  </text>

  <g transform="translate(72 420)">
    <rect x="0" y="0" width="230" height="58" rx="29" fill="#1f6f45"/>
    <text x="115" y="38" text-anchor="middle" fill="#ecfff2" font-family="Arial, sans-serif" font-size="27" font-weight="700">Foco Regional</text>

    <rect x="250" y="0" width="270" height="58" rx="29" fill="#a56c2d"/>
    <text x="385" y="38" text-anchor="middle" fill="#fff3e7" font-family="Arial, sans-serif" font-size="27" font-weight="700">Visualizacao Heatmap</text>
  </g>
</svg>